<svg xmlns="http://www.w3.org/2000/svg" version="1.1" viewBox="-5.0 -10.0 110.0 135.0">
 <path d="m89.898 18.699c-0.30078-2.3984-1.1016-3.8008-2.5-4.3008-3.1016-1.5-7.3984 2.1992-11.102 5.5-0.89844 0.80078-1.8008 1.6016-2.5 2.1016-7-4.8984-15.301-7.5-23.898-7.5-8.6016 0-16.801 2.6016-23.898 7.5-0.69922-0.5-1.5-1.3008-2.5-2.1016-3.6992-3.3008-7.8984-7-11.102-5.5-1.3008 0.5-2.1992 1.8984-2.5 4.3008-0.69922 5.1992 1.3008 15.5 4.8008 19.102-3.5 5.6016-5 11.301-4.6016 16.801 0 0.60156 0.39844 1 1 1.1016 0.5 0.10156 1.1016-0.10156 1.3984-0.60156 0.30078-0.39844 0.60156-0.80078 0.89844-1.1016-0.60156 5.1016 0.60156 11.102 3.6016 17.801 0.19922 0.5 0.80078 0.80078 1.3008 0.80078 0.60156-0.10156 1-0.5 1.1016-1.1016 0.10156-0.69922 0.30078-1.3008 0.5-1.8008 1.1016 3.6016 3.3008 6.8008 6.6016 9.5 0.39844 0.39844 1.1016 0.39844 1.6016 0.10156 0.5-0.30078 0.69922-0.89844 0.5-1.5-0.39844-1.1016-0.60156-2.1992-0.60156-3.3008 1.6016 2 4 4 7.1992 6.1016 0.5 0.30078 1.1016 0.30078 1.5-0.10156 0.39844-0.39844 0.60156-1 0.39844-1.5-0.30078-0.69922-0.30078-1.3984 0-2.1016 0.60156 0.39844 1.3008 0.69922 2 0.89844 1.3984 4.6992 5.6992 8 10.699 8s9.3008-3.3008 10.699-8c0.69922-0.19922 1.3984-0.5 2-0.89844 0.30078 0.69922 0.30078 1.3984 0 2.1016-0.19922 0.5-0.10156 1.1016 0.39844 1.5 0.19922 0.19922 0.5 0.30078 0.80078 0.30078 0.19922 0 0.5-0.10156 0.69922-0.19922 3.1992-2.1016 5.6016-4.1016 7.1992-6.1016-0.10156 1.1016-0.30078 2.1992-0.60156 3.3008-0.19922 0.5 0 1.1016 0.5 1.5 0.5 0.30078 1.1016 0.30078 1.6016-0.10156 3.3008-2.6992 5.5-5.8984 6.6016-9.5 0.19922 0.5 0.39844 1.1016 0.5 1.8008 0.10156 0.60156 0.5 1 1.1016 1.1016 0.60156 0.10156 1.1016-0.19922 1.3008-0.80078 2.8984-6.6992 4.1016-12.699 3.6016-17.801 0.30078 0.30078 0.69922 0.69922 0.89844 1.1016 0.30078 0.5 0.89844 0.69922 1.3984 0.60156 0.5-0.10156 0.89844-0.60156 1-1.1016 0.5-5.5-1.1016-11.199-4.6016-16.801 3.707-3.6992 5.6055-13.902 5.0039-19.102zm-39.898 64.699c-3.3984 0-6.3984-1.8984-7.8008-4.8984h0.19922c2.8984 0 5.5-1.3008 7.5-3.6992 2.1016 2.5 4.8008 3.8008 7.8008 3.6992-1.3008 3-4.3008 4.8984-7.6992 4.8984zm0-12.098c-1.6016 0-3-1.1016-3.5-2.6016 0-0.80078 0.39844-1.5 1.1992-1.8984 1.5-0.80078 4.1016-0.60156 5.3008 0.39844 0.60156 0.5 0.60156 1 0.5 1.3984-0.39844 1.6016-1.8008 2.7031-3.5 2.7031zm32.699-34.801c-0.30078 0.19922-0.5 0.5-0.60156 0.80078-0.10156 0.30078 0 0.69922 0.19922 1 2.8984 4.3984 4.5 8.8984 4.8008 13.199-0.60156-0.39844-1.3984-0.69922-2.1992-0.89844-0.39844-0.10156-0.89844 0-1.1992 0.30078-0.30078 0.30078-0.5 0.80078-0.30078 1.1992 1.1016 4.3984 0.5 9.6016-1.6992 15.602-0.5-0.80078-1-1.5-1.6992-2-0.39844-0.30078-0.89844-0.39844-1.3008-0.19922-0.39844 0.19922-0.69922 0.60156-0.80078 1-0.39844 3-1.5 5.6016-3.5 8 0.10156-1.3984 0-2.8984-0.30078-4.3984-0.10156-0.60156-0.60156-1-1.1992-1-0.60156 0-1.1016 0.30078-1.3008 0.89844-0.80078 2.1992-2.8984 4.6016-6.1992 7.1016-0.10156-0.5-0.30078-1-0.5-1.5 1.5-1.3984 2.6016-3.1016 2.8984-4.8984 0.19922-1.1992 0.19922-2.3008-0.10156-3.3984 0-0.19922-0.10156-0.30078-0.19922-0.39844-0.60156-1.6016-1.8008-3-3.5-4.1016h-0.10156c-1.8984-1-3-3-2.8984-5.1016h-2.6016c0 2.1992 0.80078 4.1992 2.1992 5.8008-1.1992 0.5-2.3984 1.1992-3.3008 2.1992-0.5 0.5-0.5 1.3008 0 1.8008 0.30078 0.30078 0.60156 0.39844 0.89844 0.39844 0.30078 0 0.60156-0.10156 0.89844-0.39844 1.1016-1.1016 2.5-1.8008 4-2.1016 0.60156 0.39844 1 0.89844 1.3984 1.3008-2.3008 0.69922-4.3008 2.1016-5.6992 4-0.39844 0.60156-0.30078 1.3984 0.30078 1.8008 0.19922 0.19922 0.5 0.30078 0.80078 0.30078 0.39844 0 0.80078-0.19922 1-0.5 1.1016-1.5 2.8008-2.6016 4.6016-3.1016 0 0.39844 0 0.80078-0.10156 1.1016-0.5 2.6992-3.3008 5.1016-6.3984 5.6992-1.5 0.30078-4.1992 0.30078-6.6016-2.3984 1.8008-0.69922 3.1992-2.3008 3.8008-4.1992 0.39844-1.5-0.10156-3-1.3008-4-2-1.6016-5.6016-1.8984-8.1016-0.69922-1.8008 0.89844-2.6992 2.5-2.6992 4.3984v0.30078c0.5 2 1.8984 3.5 3.8008 4.1992-2.3984 2.6016-5.1016 2.6016-6.6016 2.3984-3.1016-0.60156-5.8008-3-6.3984-5.6992-0.10156-0.39844-0.10156-0.80078-0.10156-1.1992 2 0.39844 3.8008 1.6016 5 3.1992 0.30078 0.30078 0.60156 0.5 1 0.5 0.30078 0 0.5-0.10156 0.80078-0.30078 0.60156-0.39844 0.69922-1.1992 0.30078-1.8008-1.5-2-3.6992-3.3984-6.1016-4.1016 0.39844-0.5 0.80078-0.89844 1.3984-1.3008 1.6016 0.30078 3.1992 1.1016 4.3984 2.1992 0.19922 0.19922 0.60156 0.39844 0.89844 0.39844 0.30078 0 0.69922-0.10156 0.89844-0.39844 0.5-0.5 0.5-1.3008 0-1.8008-1-1-2.3008-1.8008-3.6016-2.3008 1.3984-1.5 2.1016-3.5 2.1016-5.6016h-2.6016c0 2.1016-1.1016 4.1016-2.8984 5.1016h-0.10156c-3 2-4.3984 4.8984-3.8008 7.8984 0.39844 1.8008 1.3984 3.6016 2.8984 4.8984-0.19922 0.5-0.39844 1-0.5 1.5-3.3008-2.5-5.3984-4.8984-6.1992-7.1016-0.19922-0.5-0.69922-0.89844-1.3008-0.89844-0.60156 0-1.1016 0.5-1.1992 1-0.30078 1.5-0.39844 2.8984-0.30078 4.3984-2-2.3984-3.1016-5-3.5-8-0.10156-0.5-0.39844-0.89844-0.80078-1-0.39844-0.19922-0.89844-0.10156-1.3008 0.19922-0.69922 0.5-1.1992 1.1992-1.6992 2-2.1992-6-2.6992-11.199-1.6992-15.602 0.10156-0.39844 0-0.89844-0.30078-1.1992-0.30078-0.30078-0.80078-0.39844-1.1992-0.30078-0.80078 0.19922-1.5 0.5-2.1992 0.89844 0.30078-4.3008 1.8984-8.8008 4.8008-13.199 0.19922-0.30078 0.30078-0.60156 0.19922-1-0.10156-0.39844-0.30078-0.60156-0.60156-0.80078-2.8789-1.793-5.5781-11.895-4.8789-17.594 0.19922-1.6992 0.69922-2.1992 0.80078-2.1992s0.10156 0 0.19922-0.10156c0.30078-0.10156 1.1016-0.30078 3.3008 1.1016 1.6992 1.1016 3.3984 2.6016 5 4 1.5 1.3008 2.6992 2.3984 3.6016 2.8008 0.39844 0.19922 1 0.19922 1.3984-0.10156 6.6992-4.8984 14.699-7.5 23-7.5s16.301 2.6016 23.102 7.5c0.39844 0.30078 0.89844 0.30078 1.3984 0.10156 0.89844-0.5 2.1016-1.5 3.6016-2.8008 1.6016-1.3984 3.3984-3 5-4 2.1016-1.3984 3-1.1992 3.3008-1.1016 0.10156 0 0.10156 0.10156 0.19922 0.10156 0.10156 0 0.60156 0.60156 0.80078 2.1992 0.59766 5.6992-2.1016 15.801-4.7031 17.5zm-10.598-3.1016c-0.60156 0.60156-1.1016 0.89844-1.6016 1.1016-0.10156 0-0.19922 0.10156-0.30078 0.10156-0.89844 0.30078-1.8008 0.19922-2.8008 0.10156-2-0.19922-4.3984-0.39844-6.8984 2.1016-2.3984 2.3984-2.3008 5.1016-2.1992 7.5 0 0.80078 0.10156 1.6016 0 2.3984 0 0.69922 0.5 1.3008 1.1992 1.3984h0.10156c0.69922 0 1.1992-0.5 1.3008-1.1992v-1.3008c0.89844-1.1992 1.6992-1.3008 2.8984-1.3984 1.1016-0.10156 2.5-0.19922 3.6016-1.3984 0.89844-0.89844 1.1992-2 1.3984-2.8008 0.19922-1.1016 0.39844-2 2.3984-3.1016 0.89844-0.30078 1.8008-0.89844 2.6016-1.8008 0.5-0.5 0.5-1.3008 0-1.8008-0.40234-0.40234-1.1992-0.40234-1.6992 0.097657zm-5.7031 6.2031c-0.19922 0.69922-0.30078 1.1016-0.69922 1.5-0.5 0.5-1 0.60156-2 0.60156-0.80078 0.10156-1.8008 0.19922-2.8008 0.69922 0-0.69922 0.10156-1.3984 0.39844-2.1016 0.30078 0.30078 0.80078 0.5 1.3008 0.5 1 0 1.8984-0.80078 1.8984-1.8984 0-0.5-0.19922-1-0.60156-1.3984 0.60156-0.30078 1.3008-0.39844 1.8984-0.39844 0.5 0 0.89844 0 1.3984 0.10156-0.49219 0.99219-0.69141 1.6914-0.79297 2.3945zm-33.797-4.8008c-1.1016 0.10156-2 0.19922-2.8008-0.10156-0.10156 0-0.19922-0.10156-0.30078-0.10156-0.5-0.19922-1-0.60156-1.6016-1.1016-0.5-0.5-1.3008-0.5-1.8008 0s-0.5 1.3008 0 1.8008c0.89844 0.89844 1.8008 1.5 2.6992 1.8008 2 1.1992 2.1992 2 2.3984 3.1016 0.19922 0.80078 0.39844 1.8008 1.3984 2.8008 1.1992 1.1992 2.5 1.3008 3.6016 1.3984 1.1992 0.10156 2 0.19922 2.8984 1.3984v1.3008c0 0.69922 0.60156 1.1992 1.3008 1.1992h0.10156c0.69922 0 1.1992-0.69922 1.1992-1.3984-0.10156-0.80078 0-1.6016 0-2.3984 0.10156-2.3984 0.19922-5.1016-2.1992-7.5-2.4961-2.6016-4.9961-2.3984-6.8945-2.1992zm3.6992 7c-1-0.10156-1.5-0.19922-2-0.60156-0.39844-0.39844-0.5-0.80078-0.69922-1.5-0.10156-0.60156-0.30078-1.3984-0.80078-2.1992 1.1992-0.10156 2.3008-0.19922 3.3984 0.30078-0.39844 0.30078-0.60156 0.80078-0.60156 1.3984 0 1 0.80078 1.8984 1.8984 1.8984 0.5 0 1-0.19922 1.3008-0.5 0.19922 0.60156 0.30078 1.3008 0.39844 2.1016-1.0938-0.80078-2.0938-0.89844-2.8945-0.89844zm22.699-11.602c-5.3984-3.6992-12.699-3.6992-18.102 0-0.60156 0.39844-1.3984 0.30078-1.8008-0.30078-0.39844-0.60156-0.30078-1.3984 0.30078-1.8008 3.1016-2.1016 6.6992-3.3008 10.5-3.3008 3.8008 0 7.3984 1.1016 10.5 3.3008 0.60156 0.39844 0.69922 1.1992 0.30078 1.8008-0.30078 0.39844-0.69922 0.60156-1.1016 0.60156-0.097656-0.10156-0.29688-0.10156-0.59766-0.30078zm-28.301-2.3008c-0.5-0.5-0.39844-1.3984 0.19922-1.8008 11.102-9.1016 27.102-9.1016 38.199 0 0.5 0.5 0.60156 1.3008 0.19922 1.8008-0.30078 0.30078-0.60156 0.5-1 0.5-0.30078 0-0.60156-0.10156-0.80078-0.30078-10.102-8.3008-24.801-8.3008-34.898 0-0.59766 0.40234-1.3984 0.30078-1.8984-0.19922zm-11.199 5.5c0.39844 0.60156 0.19922 1.3984-0.39844 1.8008-0.19922 0.10156-0.39844 0.19922-0.69922 0.19922-0.39844 0-0.89844-0.19922-1.1016-0.60156-2.3984-4-3.8008-9-3.8984-14.301 0-0.69922 0.60156-1.3008 1.3008-1.3008s1.3008 0.60156 1.3008 1.3008c0.097656 4.8047 1.2969 9.3047 3.4961 12.902zm67-13c-0.10156 5.3008-1.3984 10.301-3.8984 14.301-0.19922 0.39844-0.69922 0.60156-1.1016 0.60156-0.19922 0-0.5-0.10156-0.69922-0.19922-0.60156-0.39844-0.80078-1.1992-0.39844-1.8008 2.1992-3.6016 3.3984-8.1016 3.5-13 0-0.69922 0.60156-1.3008 1.3008-1.3008 0.69531 0.10156 1.2969 0.69922 1.2969 1.3984z"/>
<text x="0.0" y="117.5" font-size="5.0" font-weight="bold" font-family="Arbeit Regular, Helvetica, Arial-Unicode, Arial, Sans-serif" fill="#000000">Created by Triman</text><text x="0.0" y="122.5" font-size="5.0" font-weight="bold" font-family="Arbeit Regular, Helvetica, Arial-Unicode, Arial, Sans-serif" fill="#000000">from Noun Project</text></svg>